<svg xmlns="http://www.w3.org/2000/svg" width="35.934" height="43.121" viewBox="0 0 35.934 43.121">
  <g id="document_1_" data-name="document(1)" transform="translate(-40)">
    <g id="Group_8" data-name="Group 8" transform="translate(48.624 30.903)">
      <g id="Group_7" data-name="Group 7" transform="translate(0)">
        <path id="Path_11" data-name="Path 11" d="M138.156,344h-1.437a.719.719,0,1,0,0,1.437h1.437a.719.719,0,1,0,0-1.437Z" transform="translate(-136 -344)" fill="#707070"/>
      </g>
    </g>
    <g id="Group_10" data-name="Group 10" transform="translate(52.936 30.903)">
      <g id="Group_9" data-name="Group 9" transform="translate(0)">
        <path id="Path_12" data-name="Path 12" d="M201.967,344H184.719a.719.719,0,0,0,0,1.437h17.248a.719.719,0,0,0,0-1.437Z" transform="translate(-184 -344)" fill="#707070"/>
      </g>
    </g>
    <g id="Group_12" data-name="Group 12" transform="translate(48.624 26.591)">
      <g id="Group_11" data-name="Group 11" transform="translate(0)">
        <path id="Path_13" data-name="Path 13" d="M138.156,296h-1.437a.719.719,0,1,0,0,1.437h1.437a.719.719,0,1,0,0-1.437Z" transform="translate(-136 -296)" fill="#707070"/>
      </g>
    </g>
    <g id="Group_14" data-name="Group 14" transform="translate(52.936 26.591)">
      <g id="Group_13" data-name="Group 13" transform="translate(0)">
        <path id="Path_14" data-name="Path 14" d="M201.967,296H184.719a.719.719,0,1,0,0,1.437h17.248a.719.719,0,1,0,0-1.437Z" transform="translate(-184 -296)" fill="#707070"/>
      </g>
    </g>
    <g id="Group_16" data-name="Group 16" transform="translate(48.624 22.279)">
      <g id="Group_15" data-name="Group 15" transform="translate(0)">
        <path id="Path_15" data-name="Path 15" d="M138.156,248h-1.437a.719.719,0,1,0,0,1.437h1.437a.719.719,0,1,0,0-1.437Z" transform="translate(-136 -248)" fill="#707070"/>
      </g>
    </g>
    <g id="Group_18" data-name="Group 18" transform="translate(52.936 22.279)">
      <g id="Group_17" data-name="Group 17" transform="translate(0)">
        <path id="Path_16" data-name="Path 16" d="M201.967,248H184.719a.719.719,0,1,0,0,1.437h17.248a.719.719,0,1,0,0-1.437Z" transform="translate(-184 -248)" fill="#707070"/>
      </g>
    </g>
    <g id="Group_20" data-name="Group 20" transform="translate(48.624 17.967)">
      <g id="Group_19" data-name="Group 19" transform="translate(0)">
        <path id="Path_17" data-name="Path 17" d="M138.156,200h-1.437a.719.719,0,1,0,0,1.437h1.437a.719.719,0,1,0,0-1.437Z" transform="translate(-136 -200)" fill="#707070"/>
      </g>
    </g>
    <g id="Group_22" data-name="Group 22" transform="translate(52.936 17.967)">
      <g id="Group_21" data-name="Group 21" transform="translate(0)">
        <path id="Path_18" data-name="Path 18" d="M201.967,200H184.719a.719.719,0,1,0,0,1.437h17.248a.719.719,0,1,0,0-1.437Z" transform="translate(-184 -200)" fill="#707070"/>
      </g>
    </g>
    <g id="Group_24" data-name="Group 24" transform="translate(48.624 13.655)">
      <g id="Group_23" data-name="Group 23" transform="translate(0)">
        <path id="Path_19" data-name="Path 19" d="M138.156,152h-1.437a.719.719,0,1,0,0,1.437h1.437a.719.719,0,0,0,0-1.437Z" transform="translate(-136 -152)" fill="#707070"/>
      </g>
    </g>
    <g id="Group_26" data-name="Group 26" transform="translate(52.936 13.655)">
      <g id="Group_25" data-name="Group 25" transform="translate(0)">
        <path id="Path_20" data-name="Path 20" d="M201.967,152H184.719a.719.719,0,1,0,0,1.437h17.248a.719.719,0,1,0,0-1.437Z" transform="translate(-184 -152)" fill="#707070"/>
      </g>
    </g>
    <g id="Group_28" data-name="Group 28" transform="translate(40)">
      <g id="Group_27" data-name="Group 27">
        <path id="Path_21" data-name="Path 21" d="M75.925,10.735a.679.679,0,0,0-.037-.185c-.008-.023-.014-.045-.024-.068a.719.719,0,0,0-.144-.211L65.659.211a.718.718,0,0,0-.211-.144c-.022-.01-.045-.016-.067-.024A.716.716,0,0,0,65.2.006C65.183.008,65.17,0,65.154,0H45.031a.719.719,0,0,0-.719.719V2.875H40.719A.719.719,0,0,0,40,3.593V42.4a.719.719,0,0,0,.719.719H70.9a.719.719,0,0,0,.719-.719V38.809h3.593a.719.719,0,0,0,.719-.719V10.78C75.934,10.764,75.926,10.751,75.925,10.735ZM65.873,2.454l7.608,7.608H65.873Zm4.312,39.23H41.437V4.312h2.875V38.09a.719.719,0,0,0,.719.719H70.185ZM74.5,37.372H45.749V1.437H64.435V10.78a.719.719,0,0,0,.719.719H74.5Z" transform="translate(-40)" fill="#707070"/>
      </g>
    </g>
    <g id="Group_30" data-name="Group 30" transform="translate(48.624 6.468)">
      <g id="Group_29" data-name="Group 29" transform="translate(0)">
        <path id="Path_22" data-name="Path 22" d="M141.031,72h-4.312a.719.719,0,0,0-.719.719v4.312a.719.719,0,0,0,.719.719h4.312a.719.719,0,0,0,.719-.719V72.719A.719.719,0,0,0,141.031,72Zm-.719,4.312h-2.875V73.437h2.875Z" transform="translate(-136 -72)" fill="#707070"/>
      </g>
    </g>
  </g>
</svg>
