<?xml version="1.0" encoding="utf-8"?>
<!-- Generator: Adobe Illustrator 27.0.1, SVG Export Plug-In . SVG Version: 6.00 Build 0)  -->
<svg version="1.1" id="svg2274" xmlns:svg="http://www.w3.org/2000/svg"
	 xmlns="http://www.w3.org/2000/svg" xmlns:xlink="http://www.w3.org/1999/xlink" x="0px" y="0px" viewBox="0 0 682.7 682.7"
	 style="enable-background:new 0 0 682.7 682.7;" xml:space="preserve">
<style type="text/css">
	.st0{fill:#FFFFFF;}
</style>
<path class="st0" d="M546.5,408.7L546.5,408.7C546.5,408.7,546.5,408.7,546.5,408.7z"/>
<path class="st0" d="M546.5,227.3C546.5,227.4,546.5,227.3,546.5,227.3L546.5,227.3z"/>
<path class="st0" d="M640.8,187.3h-74.3c0,0,0-167.3,0-167.3c0-11-9-20-20-20c-2.2,0.1-313.9-0.2-315.9,0.1c-4.5,0.5-8.8,2.5-12,5.7
	c0,0-127.3,127.2-127.3,127.2c-1.4,1.4-2.6,3-3.5,4.7c-1.5,2.9-2.3,6.1-2.3,9.4c0,0,0,196.7,0,196.7h-6.9c-11,0-20,9-20,20v138.6
	c0,0-38.7,0-38.7,0c-7.7,0-14.7,4.4-18,11.4c-3.3,7-2.3,15.2,2.5,21.2l113.6,140.1c3.8,4.7,9.5,7.4,15.5,7.4c6,0,11.7-2.7,15.5-7.4
	c0,0,26.4-32.6,26.4-32.6h370.9c11,0,20-9,20-20V448.7h74.3c23.1,0,41.8-18.8,41.8-41.8V229.2C682.7,206.1,663.9,187.3,640.8,187.3z
	 M183.5,97.7l29.4-29.4v59h-59L183.5,97.7z M150.7,609.9c0,0-17,21-17,21L62,542.5h16.7c11.1,0,20-8.9,20-20V383.9h69.9v138.6
	c0,11.1,9,20,20,20h16.7L150.7,609.9z M526.5,602.7H208l54.8-67.5c4.9-6,5.8-14.2,2.5-21.2s-10.3-11.4-18-11.4h-38.7V363.9
	c0-11-8.9-20-20-20h-63V167.2h107.3c11,0,20-9,20-20V40h273.7v147.3H282.4c-23.1,0-41.8,18.8-41.8,41.8v177.7
	c0,23.1,18.8,41.8,41.8,41.8h244.1V602.7z M642.7,406.9c0,1-0.8,1.8-1.8,1.8c-1.9-1.8-360.7,3.5-360.3-1.8c0,0,0-177.7,0-177.7
	c0-1,0.8-1.8,1.8-1.8c1.9,1.8,360.7-3.5,360.3,1.8C642.7,229.2,642.7,406.9,642.7,406.9z"/>
<path class="st0" d="M91.4,133.1c-0.4,0.4-0.8,0.9-1.2,1.3C90.6,134,91,133.5,91.4,133.1z"/>
<path class="st0" d="M606,316.7c0,7.4-6,13.3-13.3,13.3h-26.5v41c0,7.4-6,13.3-13.3,13.3c-7.4,0-13.3-6-13.3-13.3V264.4
	c0-7.4,6-13.3,13.3-13.3h43.2c7.4,0,13.3,6,13.3,13.3c0,7.4-6,13.3-13.3,13.3h-29.9v25.7h26.5C600,303.4,606,309.3,606,316.7z"/>
<path class="st0" d="M420.9,372c-0.2-0.9-0.3-1.7-0.3-2.6V264.5C420.8,281.5,420.7,357.3,420.9,372z"/>
<path class="st0" d="M420.9,262.2c0,0.1,0,0.2,0,0.3c0.1-0.3,0.1-0.6,0.2-1C421,261.7,420.9,261.9,420.9,262.2z"/>
<path class="st0" d="M464.2,251H434c-4.9,0-9.7,2.9-11.9,7.3c-1,1.9-1.5,4-1.5,6.2c0,2.1,0.1,41.3,0.1,53.1
	c0,14.7,0.1,53.1,0.1,53.5c-0.1,7.1,6.2,13.4,13.3,13.3c1,0,22.4-0.1,31.1-0.2C539,383.2,539,249.5,464.2,251z M464.9,357.5
	c-4,0.1-11,0.1-17.3,0.2c-0.1-30.5-0.1-48.5-0.2-79.9c13.8,0.2,29.5-2.6,38.3,10.3C502.6,311.5,493.1,358.2,464.9,357.5z"/>
<path class="st0" d="M357,251c-2.4,0.2-32.2-0.5-33.5,0.6c0,0,0,0,0,0c-0.4,0.1-0.8,0.3-1.2,0.4c0,0,0,0,0,0c-1.2,0.5-2.3,1.2-3.3,2
	c-2.7,2.2-4.5,5.5-4.8,9c-0.2,1.8,0,106.2-0.1,108c0,7.4,6,13.3,13.3,13.3c7.4,0,13.3-6,13.3-13.3V338c6,0,12.6-0.1,16.4-0.1
	C415.2,336.1,415.2,252.9,357,251z M357,311.2c-3.8,0-10.3,0-16.2,0.1c-0.1-14.1-0.1-19.1-0.1-33.6H357
	C379.9,278.7,379.9,310.3,357,311.2z"/>
</svg>
